# File created by Blade
# Date/Time:  Thu Jan 22 15:33:01 2015
# Frame Rate: 120.000 fps
#------------------------------------------------------
:FULLY-SPECIFIED
:DEGREES
1879
root 4.788471 18.415524 5.284104 358.657550 -85.993675 -552.610180
RightUpLeg -95.796299 2.306473 1.398134
RightLeg 4.719736 -0.000000 -0.000000
RightFoot 36.410781 34.856290 -46.946975
RightToeBase -64.918781 -0.000000 0.000000
LeftUpLeg -92.857103 -5.813755 -6.986284
LeftLeg 3.413864 -0.000000 -0.000000
LeftFoot 36.294853 -3.956233 -1.392389
LeftToeBase 28.489178 -0.000000 -0.000000
Spine 39.693931 0.873101 1.070602
RightShoulder -172.767355 32.078770 166.107833
RightArm 147.096633 55.746349 82.950381
RightForeArm 65.811854 -0.000000 103.374784
RightHand 13.965257 -0.000000 -10.113981
RightHandThumb1 -24.326973 -0.000000 -32.862282
LeftShoulder -10.604315 48.863053 16.980606
LeftArm 10.564136 54.794091 -61.411697
LeftForeArm -27.091309 -0.000000 107.363731
LeftHand -24.616456 -0.000000 -4.008371
LeftHandThumb1 -26.253704 0.000000 33.147579
Head 85.625090 0.389299 -23.111659
1880
root 4.784864 18.408267 5.279468 358.053836 -86.091122 -552.313696
RightUpLeg -95.692189 2.361978 1.324991
RightLeg 4.800150 -0.000000 -0.000000
RightFoot 36.433741 34.898350 -46.942752
RightToeBase -65.052286 -0.000000 0.000000
LeftUpLeg -92.746802 -5.721758 -6.913523
LeftLeg 3.429220 -0.000000 -0.000000
LeftFoot 36.305368 -3.954670 -1.401526
LeftToeBase 28.436342 -0.000000 -0.000000
Spine 40.058255 0.934011 1.008849
RightShoulder -172.821289 31.995654 166.061303
RightArm 147.118671 55.736115 82.953156
RightForeArm 65.861644 -0.000000 103.359826
RightHand 13.931258 -0.000000 -10.123942
RightHandThumb1 -24.326973 -0.000000 -32.862282
LeftShoulder -10.616198 48.762385 16.993361
LeftArm 10.359224 54.804152 -61.652198
LeftForeArm -27.049394 -0.000000 107.387649
LeftHand -24.600965 -0.000000 -3.979098
LeftHandThumb1 -26.253704 0.000000 33.147579
Head 85.526641 0.403436 -23.065404
1881
root 4.779719 18.400219 5.274399 357.595253 -86.193490 -552.168955
RightUpLeg -95.583546 2.419521 1.303988
RightLeg 4.882084 -0.000000 -0.000000
RightFoot 36.473691 34.923205 -46.851296
RightToeBase -65.141011 -0.000000 0.000000
LeftUpLeg -92.637512 -5.616430 -6.846711
LeftLeg 3.476359 -0.000000 -0.000000
LeftFoot 36.332980 -4.030329 -1.303428
LeftToeBase 28.394501 -0.000000 -0.000000
Spine 40.442745 0.994506 0.961049
RightShoulder -172.891115 31.844639 165.993626
RightArm 147.029179 55.705396 82.856425
RightForeArm 65.943057 -0.000000 103.340317
RightHand 13.935372 -0.000000 -10.052751
RightHandThumb1 -24.326973 -0.000000 -32.862282
LeftShoulder -10.644513 48.632942 16.996363
LeftArm 10.133521 54.819000 -61.901220
LeftForeArm -27.039442 -0.000000 107.428404
LeftHand -24.677093 -0.000000 -3.886355
LeftHandThumb1 -26.253704 0.000000 33.147579
Head 85.395900 0.432253 -23.081363
1882
root 4.773335 18.391222 5.274150 357.030251 -86.278201 -551.921161
RightUpLeg -95.493502 2.449066 1.297119
RightLeg 5.007980 -0.000000 -0.000000
RightFoot 36.498924 35.003947 -46.756599
RightToeBase -65.240473 -0.000000 0.000000
LeftUpLeg -92.513988 -5.535128 -6.839775
LeftLeg 3.541567 -0.000000 -0.000000
LeftFoot 36.300953 -4.173821 -1.219867
LeftToeBase 28.603648 -0.000000 -0.000000
Spine 40.838044 1.028409 0.921834
RightShoulder -172.954307 31.663818 165.886308
RightArm 146.917471 55.701361 82.715205
RightForeArm 66.033842 0.000000 103.333919
RightHand 13.905109 -0.000000 -10.122000
RightHandThumb1 -24.326973 -0.000000 -32.862282
LeftShoulder -10.664677 48.460013 17.003173
LeftArm 9.891097 54.851821 -62.190500
LeftForeArm -27.035535 -0.000000 107.474814
LeftHand -24.593222 -0.000000 -3.872899
LeftHandThumb1 -26.253704 0.000000 33.147579
Head 85.245990 0.439727 -23.124373
1883
root 4.763916 18.383361 5.270026 356.175994 -86.358152 -551.382681
RightUpLeg -95.390651 2.477653 1.192566
RightLeg 5.075448 -0.000000 -0.000000
RightFoot 36.552204 35.082616 -46.680959
RightToeBase -65.300942 -0.000000 0.000000
LeftUpLeg -92.369153 -5.441634 -6.716032
LeftLeg 3.548902 -0.000000 -0.000000
LeftFoot 36.284293 -4.132942 -1.338962
LeftToeBase 28.716257 -0.000000 -0.000000
Spine 41.260342 1.097087 0.875641
RightShoulder -172.973124 31.412295 165.792871
RightArm 146.695846 55.698143 82.461256
RightForeArm 66.138222 -0.000000 103.332122
RightHand 13.907577 -0.000000 -10.211814
RightHandThumb1 -24.326973 -0.000000 -32.862282
LeftShoulder -10.666079 48.217116 17.067601
LeftArm 9.630506 54.921236 -62.482960
LeftForeArm -27.037450 -0.000000 107.534076
LeftHand -24.625419 -0.000000 -3.827708
LeftHandThumb1 -26.253704 0.000000 33.147579
Head 85.081800 0.399680 -23.116543
1884
root 4.754195 18.375527 5.267747 355.798777 -86.435799 -551.288631
RightUpLeg -95.315053 2.501381 1.117662
RightLeg 5.116444 -0.000000 -0.000000
RightFoot 36.590518 35.129178 -46.586060
RightToeBase -65.392953 -0.000000 0.000000
LeftUpLeg -92.283334 -5.369968 -6.609251
LeftLeg 3.607219 -0.000000 -0.000000
LeftFoot 36.258058 -4.274284 -1.163630
LeftToeBase 28.632432 -0.000000 -0.000000
Spine 41.631885 1.162546 0.888894
RightShoulder -173.002092 31.144075 165.641747
RightArm 146.427454 55.684489 82.114977
RightForeArm 66.251429 -0.000000 103.309513
RightHand 13.882213 -0.000000 -10.303877
RightHandThumb1 -24.326973 -0.000000 -32.862282
LeftShoulder -10.598776 47.936230 17.180061
LeftArm 9.347245 55.012149 -62.799257
LeftForeArm -27.079460 -0.000000 107.591950
LeftHand -24.748302 -0.000000 -3.744948
LeftHandThumb1 -26.253704 0.000000 33.147579
Head 84.899126 0.341504 -23.219146
1885
root 4.742494 18.366023 5.269844 354.710394 -86.477472 -550.471120
RightUpLeg -95.281942 2.492883 0.975425
RightLeg 5.179769 -0.000000 -0.000000
RightFoot 36.707508 35.107212 -46.469839
RightToeBase -65.587047 -0.000000 0.000000
LeftUpLeg -92.172020 -5.337515 -6.512056
LeftLeg 3.606062 -0.000000 -0.000000
LeftFoot 36.257459 -4.235884 -1.177411
LeftToeBase 28.619837 -0.000000 -0.000000
Spine 42.006766 1.163792 0.817709
RightShoulder -173.015274 30.923837 165.494772
RightArm 146.356679 55.769047 81.963365
RightForeArm 66.449283 -0.000000 103.320252
RightHand 13.882998 -0.000000 -10.515717
RightHandThumb1 -24.326973 -0.000000 -32.862282
LeftShoulder -10.579074 47.630908 17.286475
LeftArm 9.029544 55.126492 -63.193122
LeftForeArm -27.098136 0.000000 107.626761
LeftHand -24.993334 -0.000000 -3.639391
LeftHandThumb1 -26.253704 0.000000 33.147579
Head 84.697020 0.283230 -23.370813
